<?xml version="1.0" encoding="UTF-8"?>
<svg version="1.1" viewBox="0 0 100 100" xmlns="http://www.w3.org/2000/svg">
 <g transform="translate(0 -952.36)">
  <path d="m36.863 990.83c0.27732 14.823 13.783 20.521 24.196 18.377 5.8193-0.9188 11.945-19.602 7.1976-18.377-7.574 2.4802-31.505-5.9357-31.394 0z" fill="#fea" fill-rule="evenodd" stroke="#ffd940" stroke-width="1px"/>
  <path d="m54.429 1019.3v11.934c-0.14602 0.044-0.2959 0.086-0.42383 0.1348-1.8007 1.9306-0.6095 10.215 3.209 11.992 0.44488-0.217 0.44951-2.9711 1.0742-3.5938 0.62443-0.623 1.6469-0.4922 3.4863-1.3164-0.05705-1.137-0.16974-2.1901 0.98828-3.4336 0.94586-1.0158 4.204-2.1883 4.6035-2.5976-1.9877-1.663-7.3375-2.0349-10.947-1.5703v-11.549h-1.9902z" color="#000000" fill="#f60" stroke="#000" stroke-linecap="round" stroke-linejoin="round"/>
  <path d="m51.519 961c-10.439 0-13.641 16.17-13.449 23.43-9.1872 3.2975-15.026 10.196-15.035 17.764-6.58e-4 10.911 11.93 19.756 26.646 19.756 14.717 1e-4 26.647-8.8451 26.646-19.756-0.0028-6.4708-4.2799-12.53-11.449-16.221 0.30743-9.3224-5.0698-24.558-13.359-24.973z" color="#000000" fill="#fea"/>
  <path d="m13.402 993.46c0.27732 14.823 13.783 20.521 24.196 18.377 5.8193-0.9188 11.945-19.602 7.1976-18.377-7.574 2.4802-31.505-5.9357-31.394 0z" fill="#fea" fill-rule="evenodd" stroke="#ffd940" stroke-width="1px"/>
  <path d="m49.682 976.92s-3.3691-4.7473-0.61256-7.5038 6.4319 1.6845 6.4319 3.5222-0.45942 3.3691-0.45942 3.3691l-4.7473 0.61256z" fill="#fff" fill-rule="evenodd" stroke="#000" stroke-width="1px"/>
  <path d="m61.008 976.92s3.3691-4.7473 0.61256-7.5038-6.4319 1.6845-6.4319 3.5222 0.45942 3.3691 0.45942 3.3691l4.7473 0.61256z" fill="#fff" fill-rule="evenodd" stroke="#000" stroke-width="1px"/>
  <path d="m64.383 982.89c-2.9096 0-6.585 0.91883-11.792 0.30627-5.1711-0.60836-7.0077-5.1-0.30628-5.8193 30.518 0.0484 35.245 4.8328 12.098 5.513z" fill="#f60" fill-rule="evenodd" stroke="#000" stroke-width="1px"/>
  <path d="m64.383 981.06c-2.9096 0-6.585 0.91883-11.792 0.30627-5.1711-0.60836-7.0077-5.1-0.30628-5.8193 30.518 0.0484 35.245 4.8328 12.098 5.513z" fill="#f60" fill-rule="evenodd" stroke="#000" stroke-width="1px"/>
  <ellipse cx="53.051" cy="973.02" rx=".91884" ry=".84227" color="#000000" fill="#333"/>
  <ellipse cx="59.33" cy="972.56" rx=".91884" ry=".84227" color="#000000" fill="#333"/>
  <path d="m46.312 1019.3v11.809c-3.488 0.9593-8.8232 3.8432-9.9824 6.3829 0.53701 0.1969 3.9819-0.1492 5.2734 0.3593 1.5811 0.6225 1.9341 1.6196 2.373 2.67 2.015-0.05 2.8808-0.6072 3.7129-0.3145 0.83217 0.2925 2.0246 2.7754 2.5195 2.7793 2.5423-3.0854 0.41925-10.427-1.9043-11.992v-11.693h-1.9922z" color="#000000" fill="#f60" stroke="#000" stroke-linecap="round" stroke-linejoin="round"/>
 </g>
</svg>
